<?xml version="1.0" standalone="no"?>
<!DOCTYPE svg PUBLIC "-//W3C//DTD SVG 20010904//EN"
 "http://www.w3.org/TR/2001/REC-SVG-20010904/DTD/svg10.dtd">
<svg version="1.0" xmlns="http://www.w3.org/2000/svg"
 width="215.000000pt" height="55.000000pt" viewBox="0 0 215.000000 55.000000"
 preserveAspectRatio="xMidYMid meet">

<g transform="translate(0.000000,55.000000) scale(0.100000,-0.100000)"
fill="#000000" stroke="none">
<path d="M115 501 c-62 -37 -111 -121 -71 -121 8 0 30 16 49 35 37 37 74 45
84 20 3 -9 -7 -99 -23 -200 -30 -198 -28 -215 22 -215 26 0 26 0 54 139 35
175 97 291 156 291 46 0 49 -20 24 -168 -13 -75 -24 -164 -25 -197 0 -57 1
-60 26 -63 14 -2 31 3 36 10 6 7 18 56 27 108 21 122 50 208 86 259 29 39 68
60 89 46 14 -8 14 -67 0 -125 -43 -179 -41 -241 9 -281 21 -17 37 -20 74 -16
72 6 147 72 131 115 -8 19 -22 14 -55 -18 -31 -32 -74 -40 -96 -18 -18 18 -15
53 14 185 39 180 23 233 -72 233 -36 0 -51 -6 -83 -35 -21 -19 -45 -50 -52
-68 l-14 -32 -7 48 c-9 65 -30 87 -83 87 -58 0 -103 -33 -141 -103 l-31 -58 5
55 c6 75 -13 106 -66 106 -20 0 -51 -8 -67 -19z"/>
<path d="M1123 496 c-39 -18 -61 -51 -71 -106 -4 -24 -12 -45 -18 -47 -14 -5
-38 52 -29 66 3 6 -1 11 -10 11 -8 0 -20 -12 -26 -27 -12 -32 -38 -63 -51 -63
-6 0 -7 17 -3 39 6 34 4 40 -14 46 -42 13 -79 -31 -69 -82 2 -14 13 -18 48
-19 25 -1 51 3 58 9 8 7 18 5 31 -7 15 -13 23 -14 50 -5 26 9 34 9 44 -4 12
-15 28 -21 54 -18 7 0 16 19 19 41 6 34 11 41 40 50 37 13 54 35 54 73 0 45
-54 66 -107 43z m75 -44 c4 -26 -13 -52 -35 -52 -9 0 -13 9 -11 26 4 38 -19
41 -27 5 -4 -17 -10 -31 -15 -31 -5 0 -8 -17 -7 -37 1 -21 -2 -39 -8 -41 -5
-1 -11 19 -13 45 -2 34 3 57 18 81 18 29 25 33 58 30 30 -2 38 -7 40 -26z
m-308 -74 c0 -35 -16 -56 -31 -41 -9 9 -8 18 5 37 20 32 26 33 26 4z m100 -33
c0 -8 -7 -15 -15 -15 -16 0 -20 12 -8 23 11 12 23 8 23 -8z"/>
<path d="M1397 493 c-8 -10 -19 -30 -22 -45 -7 -27 -15 -32 -42 -29 -7 1 -20
-16 -29 -39 -21 -53 -38 -52 -29 1 6 33 4 40 -6 37 -21 -7 -25 -108 -5 -108 8
0 18 5 21 10 5 8 11 7 21 -1 11 -9 21 -9 40 0 18 8 30 8 38 2 7 -6 30 -9 53
-8 36 1 42 5 52 34 13 34 31 45 31 18 0 -9 10 -20 23 -25 12 -6 30 -16 39 -22
15 -10 21 -10 35 0 10 7 30 20 45 30 32 20 37 37 8 29 -13 -3 -21 1 -25 14
-10 32 -46 35 -71 5 -27 -31 -38 -33 -31 -6 9 33 -15 35 -41 4 -23 -26 -25
-27 -20 -7 4 13 2 25 -2 28 -11 7 -30 -27 -30 -53 0 -24 -28 -37 -46 -21 -8 6
-14 22 -14 35 0 20 5 24 30 24 17 0 30 5 30 10 0 6 -7 10 -16 10 -12 0 -14 3
-6 13 10 12 15 39 13 65 -2 18 -25 15 -44 -5z m28 -25 c-10 -31 -25 -47 -25
-26 0 24 11 48 22 48 5 0 6 -10 3 -22z m-65 -92 c0 -24 -24 -53 -33 -39 -3 4
-3 20 0 36 7 33 33 36 33 3z m256 -33 c-3 -7 -10 -13 -16 -13 -11 0 -14 53 -3
64 9 9 25 -34 19 -51z"/>
<path d="M1750 400 c-22 -22 -25 -42 -10 -71 12 -21 59 -26 77 -8 8 8 13 8 17
0 11 -17 44 -13 66 9 22 22 40 19 40 -6 0 -27 18 -14 30 21 14 44 31 46 28 4
-4 -39 19 -50 28 -15 3 14 13 31 21 38 13 10 15 8 13 -12 -4 -42 -1 -50 18
-50 20 0 59 36 50 45 -3 3 -11 -1 -18 -10 -22 -26 -32 -17 -25 24 7 44 -3 57
-31 37 -16 -12 -20 -12 -31 3 -12 14 -15 13 -38 -13 l-26 -28 7 26 c4 17 2 26
-6 26 -6 0 -14 -9 -17 -20 -7 -26 -20 -25 -43 2 -15 20 -21 21 -44 10 -17 -7
-29 -22 -32 -42 -10 -49 -64 -53 -64 -4 0 25 25 34 33 12 3 -9 7 -7 12 6 5 11
3 21 -6 27 -20 13 -27 11 -49 -11z m127 -28 c13 -21 1 -48 -16 -38 -12 8 -15
56 -3 56 4 0 12 -8 19 -18z"/>
<path d="M1670 330 c0 -15 5 -20 18 -18 9 2 17 10 17 18 0 8 -8 16 -17 18 -13
2 -18 -3 -18 -18z"/>
<path d="M840 250 c0 -6 107 -10 300 -10 193 0 300 4 300 10 0 6 -107 10 -300
10 -193 0 -300 -4 -300 -10z"/>
<path d="M1540 250 c0 -14 547 -14 555 0 4 7 -90 10 -274 10 -181 0 -281 -4
-281 -10z"/>
<path d="M946 166 c4 -10 -3 -16 -23 -18 -21 -2 -29 -9 -31 -26 -6 -38 36 -24
65 21 22 36 23 37 3 37 -13 0 -18 -5 -14 -14z m-19 -43 c-9 -9 -19 -14 -23
-11 -10 10 6 28 24 28 15 0 15 -1 -1 -17z"/>
<path d="M1302 173 c3 -18 -16 -45 -38 -54 -26 -9 -32 -33 -12 -45 7 -4 18 2
26 14 8 12 23 22 33 22 24 0 33 18 18 36 -6 8 -9 17 -5 21 3 3 6 1 6 -6 0 -7
5 -9 10 -6 6 4 8 11 5 16 -7 11 -46 12 -43 2z m23 -43 c-3 -5 -10 -10 -16 -10
-5 0 -9 5 -9 10 0 6 7 10 16 10 8 0 12 -4 9 -10z"/>
<path d="M1452 155 c-7 -14 -12 -27 -12 -29 0 -2 20 -3 43 -3 32 -1 44 3 44
14 0 10 -8 13 -24 10 -18 -3 -27 1 -32 15 -7 18 -8 18 -19 -7z"/>
<path d="M1655 170 c-7 -11 16 -50 30 -50 5 0 11 14 12 30 2 24 -2 30 -17 30
-10 0 -21 -4 -25 -10z m25 -16 c0 -8 -5 -12 -10 -9 -6 4 -8 11 -5 16 9 14 15
11 15 -7z"/>
<path d="M1775 148 c-11 -27 -15 -30 -20 -15 -9 23 -45 23 -44 0 0 -11 3 -13
6 -5 2 6 9 12 14 12 6 0 7 -4 4 -10 -3 -5 1 -10 10 -10 12 0 15 -5 11 -17 -5
-16 -4 -15 9 1 8 10 16 24 19 30 3 7 8 6 14 -3 11 -15 42 -8 42 9 0 5 -9 10
-20 10 -22 0 -27 15 -7 23 7 3 5 6 -6 6 -11 1 -23 -11 -32 -31z"/>
<path d="M1600 162 c0 -5 -7 -17 -15 -28 -13 -16 -14 -16 -9 -1 10 29 -29 20
-44 -10 -12 -27 -1 -56 15 -39 4 4 1 12 -7 17 -13 9 -13 10 0 8 34 -5 66 12
68 37 1 13 0 24 -3 24 -3 0 -5 -4 -5 -8z"/>
<path d="M1207 153 c-11 -10 -8 -33 4 -33 5 0 7 5 4 10 -3 6 -1 10 4 10 6 0
11 5 11 10 0 11 -13 13 -23 3z"/>
<path d="M1378 152 c-32 -4 -38 -32 -7 -32 11 0 17 5 14 10 -3 6 -1 10 4 10 6
0 11 -4 11 -10 0 -5 6 -10 13 -10 16 0 18 28 3 32 -6 2 -23 2 -38 0z"/>
<path d="M1853 146 c4 -10 7 -20 7 -22 0 -10 49 -3 53 9 4 9 6 8 6 -2 1 -11 4
-11 16 -1 10 9 15 9 15 1 0 -6 15 -11 33 -11 23 0 34 5 34 15 0 18 -28 20 -45
3 -9 -9 -12 -9 -12 0 0 7 -13 12 -30 12 -16 0 -30 -4 -30 -10 0 -5 -7 -10 -15
-10 -8 0 -14 5 -12 11 1 6 -4 14 -12 17 -10 3 -12 0 -8 -12z"/>
<path d="M2035 151 c-3 -6 0 -11 7 -11 9 0 9 -3 -2 -10 -11 -7 -8 -10 16 -10
21 0 31 5 31 15 0 18 -17 20 -17 3 -1 -8 -6 -6 -14 5 -9 12 -16 14 -21 8z"/>
<path d="M977 144 c-11 -12 3 -24 29 -24 13 0 24 5 24 10 0 6 5 10 11 10 5 0
7 -6 3 -12 -5 -10 -4 -10 6 -1 16 15 40 -5 33 -27 -3 -9 1 -8 11 5 12 14 27
19 54 18 27 -1 39 2 39 12 0 9 -14 13 -44 13 -23 0 -43 -4 -43 -9 0 -5 -5 -9
-11 -9 -5 0 -7 5 -4 10 9 14 -48 13 -63 -2 -9 -9 -12 -9 -12 0 0 13 -22 16
-33 6z"/>
</g>
</svg>
